<?xml version="1.0" encoding="UTF-8"?>
<svg xmlns="http://www.w3.org/2000/svg" xmlns:xlink="http://www.w3.org/1999/xlink" width="71px" height="16px" viewBox="0 0 71 16" version="1.1">
<g id="surface1">
<path style=" stroke:none;fill-rule:nonzero;fill:rgb(41.960785%,57.254905%,67.058825%);fill-opacity:1;" d="M 23.210938 4.867188 C 24.132812 5.074219 24.878906 5.335938 25.636719 5.621094 C 25.800781 5.667969 25.960938 5.714844 26.128906 5.761719 C 27.050781 5.675781 27.050781 5.675781 27.617188 5.347656 C 28.671875 4.863281 29.691406 4.726562 31.300781 4.652344 C 33.691406 4.609375 35.394531 4.726562 37.203125 5.332031 C 38.863281 6.027344 39.558594 6.792969 39.511719 7.71875 C 39.210938 8.46875 37.835938 9.105469 36.300781 9.574219 C 34.46875 10 32.464844 10.113281 30.351562 9.972656 C 29.160156 9.84375 28.363281 9.5625 27.480469 9.242188 C 26.949219 9.046875 26.949219 9.046875 26.128906 8.851562 C 26.011719 8.898438 25.894531 8.945312 25.773438 8.992188 C 25.621094 9.050781 25.46875 9.113281 25.3125 9.171875 C 25.160156 9.234375 25.007812 9.292969 24.851562 9.351562 C 24.425781 9.492188 24.425781 9.492188 23.855469 9.492188 C 23.855469 9.5625 23.855469 9.632812 23.855469 9.707031 C 21.476562 10.035156 19.605469 10.136719 17.253906 9.734375 C 15.617188 9.394531 14.347656 8.890625 13.578125 8.253906 C 13.007812 7.363281 13.222656 6.554688 14.484375 5.761719 C 16.792969 4.738281 19.894531 4.28125 23.210938 4.867188 Z M 19.597656 6.078125 C 19.503906 6.328125 19.410156 6.574219 19.3125 6.828125 C 18.730469 6.851562 18.148438 6.875 17.566406 6.898438 C 17.035156 6.914062 17.035156 6.914062 16.757812 7.039062 C 16.746094 7.21875 16.742188 7.394531 16.757812 7.574219 C 17.886719 7.652344 17.886719 7.652344 19.027344 7.679688 C 19.09375 7.898438 19.15625 8.117188 19.222656 8.335938 C 19.261719 8.535156 19.261719 8.535156 19.597656 8.640625 C 20.070312 8.644531 20.542969 8.644531 21.015625 8.640625 C 21.4375 8.324219 21.316406 8.027344 21.300781 7.679688 C 21.5625 7.6875 21.828125 7.691406 22.097656 7.699219 C 22.984375 7.707031 22.984375 7.707031 23.554688 7.546875 C 23.925781 7.363281 23.925781 7.363281 23.765625 7.125 C 23.703125 7.0625 23.636719 7 23.570312 6.933594 C 22.820312 6.933594 22.074219 6.933594 21.300781 6.933594 C 21.300781 6.652344 21.300781 6.371094 21.300781 6.078125 C 20.738281 6.078125 20.175781 6.078125 19.597656 6.078125 Z M 28.683594 7.148438 C 28.777344 7.324219 28.871094 7.5 28.96875 7.679688 C 31.21875 7.679688 33.464844 7.679688 35.785156 7.679688 C 35.785156 7.46875 35.785156 7.257812 35.785156 7.039062 C 35.117188 6.789062 33.449219 6.914062 32.554688 6.914062 C 32.277344 6.910156 32 6.910156 31.71875 6.910156 C 31.453125 6.910156 31.1875 6.910156 30.914062 6.910156 C 30.671875 6.910156 30.425781 6.90625 30.175781 6.90625 C 29.457031 6.917969 29.457031 6.917969 28.683594 7.148438 Z M 28.683594 7.148438 "/>
<path style=" stroke:none;fill-rule:nonzero;fill:rgb(89.411765%,50.588238%,35.294119%);fill-opacity:1;" d="M 23.171875 4.867188 C 26.273438 5.535156 26.273438 5.535156 27 6.105469 C 27.160156 6.351562 27.230469 6.574219 27.265625 6.828125 C 27.300781 6.964844 27.335938 7.097656 27.371094 7.238281 C 27.308594 7.972656 26.597656 8.71875 25.242188 9.246094 C 24.425781 9.492188 24.425781 9.492188 23.855469 9.492188 C 23.855469 9.5625 23.855469 9.632812 23.855469 9.707031 C 21.476562 10.035156 19.605469 10.136719 17.253906 9.734375 C 15.617188 9.394531 14.347656 8.890625 13.578125 8.253906 C 13.007812 7.363281 13.222656 6.554688 14.484375 5.761719 C 16.753906 4.753906 19.902344 4.265625 23.171875 4.867188 Z M 19.597656 6.078125 C 19.503906 6.328125 19.410156 6.574219 19.3125 6.828125 C 18.730469 6.851562 18.148438 6.875 17.566406 6.898438 C 17.035156 6.914062 17.035156 6.914062 16.757812 7.039062 C 16.746094 7.21875 16.742188 7.394531 16.757812 7.574219 C 17.886719 7.652344 17.886719 7.652344 19.027344 7.679688 C 19.09375 7.898438 19.15625 8.117188 19.222656 8.335938 C 19.261719 8.535156 19.261719 8.535156 19.597656 8.640625 C 20.070312 8.644531 20.542969 8.644531 21.015625 8.640625 C 21.4375 8.324219 21.316406 8.027344 21.300781 7.679688 C 21.5625 7.6875 21.828125 7.691406 22.097656 7.699219 C 22.984375 7.707031 22.984375 7.707031 23.554688 7.546875 C 23.925781 7.363281 23.925781 7.363281 23.765625 7.125 C 23.703125 7.0625 23.636719 7 23.570312 6.933594 C 22.820312 6.933594 22.074219 6.933594 21.300781 6.933594 C 21.300781 6.652344 21.300781 6.371094 21.300781 6.078125 C 20.738281 6.078125 20.175781 6.078125 19.597656 6.078125 Z M 19.597656 6.078125 "/>
<path style=" stroke:none;fill-rule:nonzero;fill:rgb(44.705883%,58.431375%,66.666669%);fill-opacity:1;" d="M 67.644531 4.96875 C 69.320312 5.460938 70.097656 6.164062 70.433594 6.933594 C 70.484375 7.300781 70.484375 7.300781 70.433594 7.574219 C 69.464844 7.9375 66.523438 7.792969 65.226562 7.796875 C 64.625 7.796875 64.023438 7.796875 63.421875 7.792969 C 62.953125 7.792969 62.953125 7.792969 62.476562 7.792969 C 61.722656 7.789062 60.964844 7.789062 60.207031 7.785156 C 60.578125 8.222656 60.578125 8.222656 61.058594 8.640625 C 62.808594 8.960938 64.269531 9.050781 66.171875 8.851562 C 66.929688 8.699219 67.496094 8.53125 68.160156 8.320312 C 68.863281 8.53125 68.863281 8.53125 69.578125 8.746094 C 69.425781 9.132812 69.097656 9.277344 68.265625 9.507812 C 66.171875 10.050781 64.496094 10.0625 62.019531 9.90625 C 60.050781 9.714844 58.972656 9.335938 57.953125 8.6875 C 57.046875 8.039062 56.785156 7.355469 57.289062 6.644531 C 57.816406 6.050781 58.308594 5.628906 59.640625 5.226562 C 59.863281 5.148438 60.085938 5.074219 60.316406 4.992188 C 62.519531 4.421875 65.347656 4.488281 67.644531 4.96875 Z M 61.628906 5.867188 C 60.769531 6.109375 60.769531 6.109375 60.207031 6.398438 C 60.207031 6.539062 60.207031 6.679688 60.207031 6.828125 C 62.644531 6.828125 65.082031 6.828125 67.59375 6.828125 C 67.28125 6.246094 67.082031 6.121094 65.886719 5.761719 C 64.242188 5.480469 63.152344 5.542969 61.628906 5.867188 Z M 61.628906 5.867188 "/>
<path style=" stroke:none;fill-rule:nonzero;fill:rgb(43.529412%,58.823532%,67.450982%);fill-opacity:1;" d="M 42.882812 4.585938 C 43.335938 4.925781 43.195312 5.292969 43.1875 5.667969 C 43.183594 5.746094 43.183594 5.828125 43.183594 5.910156 C 43.179688 6.109375 43.171875 6.308594 43.167969 6.507812 C 44.601562 6.195312 45.613281 5.84375 46.628906 5.351562 C 46.800781 5.277344 46.96875 5.199219 47.144531 5.121094 C 47.332031 5.121094 47.519531 5.121094 47.710938 5.121094 C 47.777344 5.050781 47.839844 4.984375 47.90625 4.914062 C 48.28125 4.691406 48.28125 4.691406 48.902344 4.613281 C 49.835938 4.582031 50.753906 4.578125 51.6875 4.585938 C 51.320312 4.992188 50.90625 5.234375 50.074219 5.527344 C 49.089844 5.882812 48.183594 6.25 47.296875 6.640625 C 46.886719 6.816406 46.457031 6.980469 46.007812 7.148438 C 46.972656 7.648438 47.949219 8.101562 49.132812 8.535156 C 49.511719 8.710938 49.890625 8.890625 50.269531 9.066406 C 50.527344 9.15625 50.785156 9.246094 51.050781 9.339844 C 51.6875 9.601562 51.6875 9.601562 51.6875 10.027344 C 48.699219 10.054688 48.699219 10.054688 47.703125 9.734375 C 47.289062 9.519531 46.9375 9.296875 46.574219 9.066406 C 46.421875 9.007812 46.265625 8.953125 46.105469 8.890625 C 45.722656 8.746094 45.722656 8.746094 45.722656 8.535156 C 45.300781 8.480469 45.300781 8.480469 44.871094 8.425781 C 44.386719 8.253906 43.914062 8.074219 43.453125 7.894531 C 43.164062 8.335938 43.140625 8.75 43.148438 9.207031 C 43.152344 9.339844 43.15625 9.472656 43.15625 9.613281 C 43.160156 9.714844 43.164062 9.816406 43.167969 9.921875 C 42.320312 10.078125 41.542969 10.039062 40.613281 10.027344 C 39.992188 9.792969 40.207031 9.265625 40.167969 8.941406 C 40.15625 8.839844 40.144531 8.742188 40.132812 8.640625 C 40.050781 7.898438 40.015625 7.15625 40.007812 6.414062 C 40.007812 6.316406 40.007812 6.21875 40.003906 6.121094 C 40.007812 5.597656 40.09375 5.101562 40.328125 4.585938 C 41.324219 4.460938 41.875 4.496094 42.882812 4.585938 Z M 42.882812 4.585938 "/>
<path style=" stroke:none;fill-rule:nonzero;fill:rgb(44.705883%,58.039218%,66.666669%);fill-opacity:1;" d="M 13.914062 4.585938 C 13.761719 5.105469 13.316406 5.507812 12.671875 5.960938 C 11.464844 6.835938 10.371094 7.734375 9.28125 8.632812 C 9.089844 8.789062 9.089844 8.789062 8.894531 8.953125 C 8.78125 9.046875 8.667969 9.140625 8.550781 9.238281 C 8.269531 9.46875 7.972656 9.695312 7.667969 9.921875 C 7.480469 9.921875 7.292969 9.921875 7.101562 9.921875 C 6.5625 9.5 6.023438 9.078125 5.484375 8.660156 C 5.335938 8.542969 5.183594 8.425781 5.027344 8.304688 C 4.300781 7.734375 3.578125 7.164062 2.871094 6.59375 C 2.753906 6.5 2.640625 6.40625 2.519531 6.308594 C 2.273438 6.078125 2.273438 6.078125 2.273438 5.867188 C 1.898438 5.832031 1.523438 5.796875 1.136719 5.761719 C 1.277344 5.289062 1.730469 5.042969 2.554688 4.691406 C 3.210938 4.691406 3.210938 4.691406 3.976562 4.800781 C 4.417969 5.171875 4.417969 5.171875 4.617188 5.40625 C 5.292969 6.199219 6.382812 6.941406 7.382812 7.679688 C 8.027344 7.378906 8.457031 7.09375 8.847656 6.738281 C 9.011719 6.589844 9.011719 6.589844 9.179688 6.441406 C 9.289062 6.339844 9.398438 6.238281 9.515625 6.132812 C 9.734375 5.933594 9.957031 5.730469 10.179688 5.53125 C 10.324219 5.398438 10.324219 5.398438 10.472656 5.261719 C 10.804688 5.003906 11.144531 4.800781 11.644531 4.585938 C 12.578125 4.46875 12.984375 4.5 13.914062 4.585938 Z M 13.914062 4.585938 "/>
<path style=" stroke:none;fill-rule:nonzero;fill:rgb(41.568628%,57.647061%,66.666669%);fill-opacity:1;" d="M 55.949219 4.480469 C 56.203125 5.132812 56.269531 5.761719 56.257812 6.421875 C 56.257812 6.519531 56.257812 6.621094 56.257812 6.726562 C 56.257812 7.042969 56.253906 7.363281 56.25 7.679688 C 56.25 7.898438 56.246094 8.113281 56.246094 8.332031 C 56.242188 8.859375 56.238281 9.390625 56.230469 9.921875 C 55.351562 10.007812 54.589844 10.046875 53.675781 10.027344 C 53.203125 9.847656 53.328125 9.632812 53.300781 9.390625 C 53.289062 9.277344 53.277344 9.167969 53.265625 9.054688 C 53.253906 8.933594 53.242188 8.816406 53.230469 8.691406 C 53.21875 8.574219 53.207031 8.453125 53.195312 8.328125 C 52.941406 5.574219 52.941406 5.574219 53.390625 4.585938 C 54.230469 4.429688 55.023438 4.472656 55.949219 4.480469 Z M 55.949219 4.480469 "/>
<path style=" stroke:none;fill-rule:nonzero;fill:rgb(42.352942%,58.039218%,69.411767%);fill-opacity:1;" d="M 59.355469 5.332031 C 59.355469 5.761719 58.855469 5.945312 58.21875 6.292969 C 57.914062 6.640625 57.898438 6.898438 57.902344 7.261719 C 57.898438 7.375 57.898438 7.488281 57.898438 7.605469 C 57.882812 7.890625 57.882812 7.890625 58.21875 8.105469 C 58.59375 7.859375 58.96875 7.613281 59.355469 7.359375 C 59.589844 7.386719 59.589844 7.386719 59.832031 7.410156 C 60.554688 7.472656 61.230469 7.488281 61.96875 7.5 C 62.246094 7.503906 62.527344 7.507812 62.8125 7.515625 C 63.101562 7.519531 63.390625 7.523438 63.6875 7.527344 C 64.125 7.535156 64.125 7.535156 64.574219 7.539062 C 65.296875 7.550781 66.019531 7.5625 66.738281 7.574219 C 66.738281 7.609375 66.738281 7.644531 66.738281 7.679688 C 64.585938 7.714844 62.429688 7.75 60.207031 7.785156 C 60.582031 8.222656 60.582031 8.222656 61.058594 8.640625 C 62.808594 8.960938 64.269531 9.050781 66.171875 8.851562 C 66.929688 8.699219 67.496094 8.53125 68.160156 8.320312 C 68.863281 8.53125 68.863281 8.53125 69.578125 8.746094 C 69.425781 9.132812 69.097656 9.277344 68.265625 9.507812 C 66.171875 10.050781 64.496094 10.0625 62.019531 9.90625 C 60.050781 9.714844 58.972656 9.335938 57.953125 8.6875 C 57.046875 8.039062 56.777344 7.351562 57.296875 6.640625 C 57.789062 6.09375 58.195312 5.722656 59.355469 5.332031 Z M 59.355469 5.332031 "/>
<path style=" stroke:none;fill-rule:nonzero;fill:rgb(85.882354%,54.901963%,45.09804%);fill-opacity:1;" d="M 21.867188 5.652344 C 22.054688 5.6875 22.242188 5.722656 22.4375 5.761719 C 22.34375 5.832031 22.25 5.902344 22.152344 5.972656 C 22.433594 6.007812 22.714844 6.042969 23.003906 6.078125 C 22.816406 6.152344 22.628906 6.222656 22.4375 6.292969 C 22.253906 6.515625 22.253906 6.515625 22.152344 6.71875 C 22.621094 6.71875 23.089844 6.71875 23.570312 6.71875 C 23.570312 6.789062 23.570312 6.859375 23.570312 6.933594 C 22.820312 6.933594 22.074219 6.933594 21.300781 6.933594 C 21.300781 6.652344 21.300781 6.371094 21.300781 6.078125 C 20.738281 6.078125 20.175781 6.078125 19.597656 6.078125 C 19.597656 6.363281 19.597656 6.644531 19.597656 6.933594 C 18.332031 6.984375 18.332031 6.984375 17.039062 7.039062 C 16.945312 7.214844 16.851562 7.390625 16.757812 7.574219 C 17.125 7.570312 17.492188 7.570312 17.875 7.566406 C 18.257812 7.5625 18.644531 7.566406 19.027344 7.574219 C 19.609375 7.792969 19.511719 8.246094 19.597656 8.535156 C 20.066406 8.570312 20.53125 8.605469 21.015625 8.640625 C 21.109375 8.324219 21.203125 8.007812 21.300781 7.679688 C 22.238281 7.679688 23.175781 7.679688 24.140625 7.679688 C 24.175781 8.507812 24.175781 8.507812 23.855469 8.746094 C 23.667969 8.746094 23.480469 8.746094 23.289062 8.746094 C 23.289062 8.816406 23.289062 8.886719 23.289062 8.960938 C 24.039062 8.960938 24.789062 8.960938 25.558594 8.960938 C 25.195312 9.140625 24.816406 9.320312 24.425781 9.492188 C 24.238281 9.492188 24.050781 9.492188 23.855469 9.492188 C 23.855469 9.5625 23.855469 9.632812 23.855469 9.707031 C 21.742188 10 19.972656 10.148438 17.824219 9.824219 C 16.945312 9.664062 16.152344 9.484375 15.335938 9.28125 C 15.335938 9.210938 15.335938 9.140625 15.335938 9.066406 C 16.902344 9.148438 16.902344 9.148438 17.660156 9.292969 C 18.21875 9.421875 18.21875 9.421875 19.027344 9.28125 C 19.027344 9.386719 19.027344 9.492188 19.027344 9.601562 C 19.683594 9.636719 20.339844 9.671875 21.015625 9.707031 C 21.109375 9.601562 21.203125 9.496094 21.300781 9.386719 C 21.582031 9.386719 21.863281 9.386719 22.152344 9.386719 C 22.152344 9.316406 22.152344 9.246094 22.152344 9.171875 C 22.339844 9.171875 22.527344 9.171875 22.71875 9.171875 C 22.90625 8.785156 23.09375 8.398438 23.289062 8 C 23.007812 8.035156 22.726562 8.070312 22.4375 8.105469 C 22.488281 8.191406 22.542969 8.277344 22.597656 8.367188 C 22.636719 8.457031 22.679688 8.546875 22.71875 8.640625 C 22.230469 8.824219 21.558594 8.789062 20.890625 8.8125 C 20.609375 8.824219 20.332031 8.832031 20.039062 8.84375 C 19.3125 8.851562 19.3125 8.851562 18.742188 8.746094 C 18.742188 8.464844 18.742188 8.183594 18.742188 7.894531 C 18.378906 7.894531 18.019531 7.898438 17.644531 7.898438 C 16.542969 7.90625 16.542969 7.90625 15.902344 7.785156 C 16.042969 7.3125 16.042969 7.3125 16.1875 6.828125 C 17.03125 6.828125 17.875 6.828125 18.742188 6.828125 C 18.742188 6.582031 18.742188 6.332031 18.742188 6.078125 C 18.929688 6.078125 19.117188 6.078125 19.3125 6.078125 C 19.3125 6.007812 19.3125 5.9375 19.3125 5.867188 C 20.15625 5.867188 21 5.867188 21.867188 5.867188 C 21.867188 5.796875 21.867188 5.726562 21.867188 5.652344 Z M 21.867188 5.652344 "/>
<path style=" stroke:none;fill-rule:nonzero;fill:rgb(90.980393%,50.588238%,34.117648%);fill-opacity:1;" d="M 15.335938 7.679688 C 17.023438 7.785156 17.023438 7.785156 18.742188 7.894531 C 18.742188 8.175781 18.742188 8.457031 18.742188 8.746094 C 20.570312 8.695312 20.570312 8.695312 22.4375 8.640625 C 22.34375 8.464844 22.25 8.289062 22.152344 8.105469 C 22.527344 8.070312 22.902344 8.035156 23.289062 8 C 23.039062 8.8125 23.039062 8.8125 22.71875 9.171875 C 22.53125 9.171875 22.34375 9.171875 22.152344 9.171875 C 22.117188 9.238281 22.082031 9.304688 22.046875 9.375 C 21.867188 9.601562 21.867188 9.601562 21.300781 9.8125 C 20.269531 9.828125 20.269531 9.828125 19.3125 9.8125 C 19.125 9.671875 18.9375 9.53125 18.742188 9.386719 C 18.578125 9.410156 18.414062 9.433594 18.246094 9.460938 C 17.609375 9.492188 17.609375 9.492188 17.039062 9.347656 C 16.851562 9.289062 16.664062 9.230469 16.472656 9.171875 C 16.285156 9.160156 16.101562 9.148438 15.910156 9.136719 C 15.335938 9.066406 15.335938 9.066406 14.976562 8.871094 C 14.839844 8.753906 14.839844 8.753906 14.695312 8.632812 C 14.601562 8.554688 14.507812 8.476562 14.410156 8.394531 C 14.339844 8.335938 14.269531 8.277344 14.199219 8.214844 C 14.386719 8.179688 14.574219 8.144531 14.769531 8.105469 C 14.957031 7.964844 15.144531 7.824219 15.335938 7.679688 Z M 15.335938 7.679688 "/>
<path style=" stroke:none;fill-rule:nonzero;fill:rgb(41.176471%,54.509807%,65.098041%);fill-opacity:1;" d="M 13.914062 4.585938 C 13.773438 5.25 12.972656 5.808594 12.210938 6.398438 C 12.023438 6.398438 11.835938 6.398438 11.644531 6.398438 C 11.492188 6.523438 11.34375 6.648438 11.1875 6.777344 C 10.984375 6.941406 10.78125 7.109375 10.578125 7.273438 C 10.480469 7.355469 10.382812 7.4375 10.28125 7.523438 C 9.714844 7.980469 9.136719 8.367188 8.234375 8.746094 C 7.933594 8.546875 7.933594 8.546875 7.667969 8.320312 C 7.761719 8.25 7.855469 8.179688 7.953125 8.105469 C 8.140625 8.105469 8.328125 8.105469 8.519531 8.105469 C 8.519531 8.035156 8.519531 7.964844 8.519531 7.894531 C 8.238281 7.894531 7.957031 7.894531 7.667969 7.894531 C 8.28125 7.152344 9.054688 6.460938 9.941406 5.761719 C 10.0625 5.660156 10.183594 5.558594 10.308594 5.457031 C 10.425781 5.359375 10.546875 5.265625 10.667969 5.167969 C 10.773438 5.082031 10.878906 4.996094 10.988281 4.90625 C 11.773438 4.457031 12.613281 4.449219 13.914062 4.585938 Z M 13.914062 4.585938 "/>
<path style=" stroke:none;fill-rule:nonzero;fill:rgb(44.313726%,58.431375%,66.274512%);fill-opacity:1;" d="M 42.882812 4.585938 C 42.976562 4.65625 43.070312 4.726562 43.167969 4.800781 C 42.980469 4.800781 42.792969 4.800781 42.601562 4.800781 C 42.507812 4.90625 42.414062 5.011719 42.316406 5.121094 C 41.847656 5.121094 41.378906 5.121094 40.894531 5.121094 C 40.894531 5.859375 40.894531 6.597656 40.894531 7.359375 C 41.457031 7.429688 42.019531 7.5 42.601562 7.574219 C 42.789062 7.539062 42.976562 7.503906 43.167969 7.464844 C 43.386719 7.714844 43.464844 7.867188 43.320312 8.125 C 43.136719 8.492188 43.140625 8.835938 43.148438 9.207031 C 43.152344 9.339844 43.15625 9.472656 43.15625 9.613281 C 43.160156 9.714844 43.164062 9.816406 43.167969 9.921875 C 42.320312 10.078125 41.542969 10.039062 40.613281 10.027344 C 39.992188 9.792969 40.207031 9.265625 40.167969 8.941406 C 40.15625 8.839844 40.144531 8.742188 40.132812 8.640625 C 40.050781 7.898438 40.015625 7.15625 40.007812 6.414062 C 40.007812 6.316406 40.007812 6.21875 40.003906 6.121094 C 40.007812 5.597656 40.09375 5.101562 40.328125 4.585938 C 41.324219 4.460938 41.875 4.496094 42.882812 4.585938 Z M 42.882812 4.585938 "/>
<path style=" stroke:none;fill-rule:nonzero;fill:rgb(45.882353%,59.215689%,66.666669%);fill-opacity:1;" d="M 38.054688 5.972656 C 39.300781 6.382812 39.398438 6.894531 39.527344 7.488281 C 39.476562 8.261719 38.277344 8.835938 36.921875 9.386719 C 36.1875 9.585938 36.1875 9.585938 35.5 9.707031 C 35.078125 9.652344 35.078125 9.652344 34.648438 9.601562 C 36.28125 9.171875 36.28125 9.171875 36.921875 9.171875 C 37.320312 8.890625 37.59375 8.632812 37.773438 8.320312 C 37.679688 8.355469 37.585938 8.390625 37.488281 8.425781 C 37.300781 8.460938 37.113281 8.496094 36.921875 8.535156 C 36.78125 8.269531 36.78125 8.269531 36.636719 8 C 36.167969 7.964844 35.699219 7.929688 35.214844 7.894531 C 35.214844 7.824219 35.214844 7.753906 35.214844 7.679688 C 35.402344 7.679688 35.589844 7.679688 35.785156 7.679688 C 35.691406 7.46875 35.597656 7.257812 35.5 7.039062 C 32.265625 6.988281 32.265625 6.988281 28.96875 6.933594 C 28.96875 6.898438 28.96875 6.863281 28.96875 6.828125 C 29.300781 6.828125 29.300781 6.828125 29.636719 6.828125 C 30.632812 6.835938 31.628906 6.835938 32.625 6.839844 C 32.972656 6.839844 33.320312 6.84375 33.675781 6.84375 C 34.175781 6.847656 34.175781 6.847656 34.679688 6.847656 C 34.988281 6.847656 35.292969 6.851562 35.609375 6.851562 C 36.398438 6.855469 36.398438 6.855469 36.921875 6.613281 C 37.109375 6.613281 37.292969 6.613281 37.488281 6.613281 C 37.675781 6.402344 37.863281 6.191406 38.054688 5.972656 Z M 38.054688 5.972656 "/>
<path style=" stroke:none;fill-rule:nonzero;fill:rgb(49.411765%,60.784316%,69.01961%);fill-opacity:1;" d="M 59.355469 5.332031 C 59.355469 5.761719 58.855469 5.945312 58.21875 6.292969 C 57.914062 6.640625 57.898438 6.898438 57.902344 7.261719 C 57.898438 7.375 57.898438 7.488281 57.898438 7.605469 C 57.882812 7.890625 57.882812 7.890625 58.21875 8.105469 C 58.59375 7.859375 58.96875 7.613281 59.355469 7.359375 C 59.589844 7.386719 59.589844 7.386719 59.832031 7.410156 C 60.554688 7.472656 61.230469 7.488281 61.96875 7.5 C 62.246094 7.503906 62.527344 7.507812 62.8125 7.515625 C 63.101562 7.519531 63.390625 7.523438 63.6875 7.527344 C 64.125 7.535156 64.125 7.535156 64.574219 7.539062 C 65.296875 7.550781 66.019531 7.5625 66.738281 7.574219 C 66.738281 7.609375 66.738281 7.644531 66.738281 7.679688 C 64.585938 7.714844 62.429688 7.75 60.207031 7.785156 C 60.582031 8.222656 60.582031 8.222656 61.058594 8.640625 C 62.492188 8.871094 63.773438 9.007812 65.320312 9.066406 C 65.320312 9.101562 65.320312 9.136719 65.320312 9.171875 C 62.753906 9.242188 60.980469 9.160156 58.789062 8.640625 C 58.976562 8.816406 59.164062 8.992188 59.355469 9.171875 C 59.167969 9.171875 58.980469 9.171875 58.789062 9.171875 C 58.554688 9.023438 58.324219 8.875 58.097656 8.726562 C 57.96875 8.644531 57.839844 8.5625 57.707031 8.476562 C 56.789062 7.765625 56.917969 7.058594 57.582031 6.328125 C 57.988281 5.894531 58.449219 5.640625 59.355469 5.332031 Z M 59.355469 5.332031 "/>
<path style=" stroke:none;fill-rule:nonzero;fill:rgb(89.803922%,50.196081%,36.470589%);fill-opacity:1;" d="M 21.867188 7.894531 C 22.523438 7.894531 23.179688 7.894531 23.855469 7.894531 C 24.175781 8.507812 24.175781 8.507812 23.855469 8.746094 C 23.667969 8.746094 23.480469 8.746094 23.289062 8.746094 C 23.289062 8.816406 23.289062 8.886719 23.289062 8.960938 C 24.039062 8.960938 24.789062 8.960938 25.558594 8.960938 C 25.195312 9.140625 24.816406 9.320312 24.425781 9.492188 C 24.238281 9.492188 24.050781 9.492188 23.855469 9.492188 C 23.855469 9.5625 23.855469 9.632812 23.855469 9.707031 C 21.742188 10 19.972656 10.148438 17.824219 9.824219 C 16.945312 9.664062 16.152344 9.484375 15.335938 9.28125 C 15.335938 9.210938 15.335938 9.140625 15.335938 9.066406 C 16.902344 9.148438 16.902344 9.148438 17.660156 9.292969 C 18.21875 9.421875 18.21875 9.421875 19.027344 9.28125 C 19.027344 9.386719 19.027344 9.492188 19.027344 9.601562 C 19.683594 9.636719 20.339844 9.671875 21.015625 9.707031 C 21.109375 9.601562 21.203125 9.496094 21.300781 9.386719 C 21.582031 9.386719 21.863281 9.386719 22.152344 9.386719 C 22.152344 9.316406 22.152344 9.246094 22.152344 9.171875 C 22.339844 9.171875 22.527344 9.171875 22.71875 9.171875 C 22.90625 8.785156 23.09375 8.398438 23.289062 8 C 23.007812 8.035156 22.726562 8.070312 22.4375 8.105469 C 22.53125 8.28125 22.625 8.457031 22.71875 8.640625 C 22.4375 8.640625 22.15625 8.640625 21.867188 8.640625 C 21.867188 8.394531 21.867188 8.148438 21.867188 7.894531 Z M 21.867188 7.894531 "/>
<path style=" stroke:none;fill-rule:nonzero;fill:rgb(90.588236%,53.333336%,40.000001%);fill-opacity:1;" d="M 16.1875 5.332031 C 15.871094 5.6875 15.484375 5.828125 14.769531 6.078125 C 14.957031 6.078125 15.144531 6.078125 15.335938 6.078125 C 15.429688 6.1875 15.523438 6.292969 15.621094 6.398438 C 15.527344 6.46875 15.433594 6.539062 15.335938 6.613281 C 15.523438 6.613281 15.710938 6.613281 15.902344 6.613281 C 16.25 7.289062 16.25 7.289062 15.992188 7.585938 C 15.519531 7.839844 15.011719 8.082031 14.484375 8.320312 C 14.628906 8.402344 14.777344 8.488281 14.929688 8.574219 C 15.128906 8.710938 15.128906 8.710938 15.335938 8.851562 C 15.242188 8.921875 15.148438 8.992188 15.050781 9.066406 C 13.621094 8.457031 13.210938 7.910156 13.257812 7.109375 C 13.453125 6.5 14.058594 5.957031 15.085938 5.480469 C 15.621094 5.332031 15.621094 5.332031 16.1875 5.332031 Z M 16.1875 5.332031 "/>
<path style=" stroke:none;fill-rule:nonzero;fill:rgb(79.607844%,53.725493%,45.490196%);fill-opacity:1;" d="M 19.3125 4.585938 C 22.023438 4.5 24.078125 4.992188 26.117188 5.632812 C 27.027344 6 27.199219 6.332031 27.265625 6.828125 C 27.300781 6.964844 27.335938 7.097656 27.371094 7.238281 C 27.335938 7.804688 26.773438 8.347656 26.128906 8.851562 C 25.847656 8.90625 25.847656 8.90625 25.558594 8.960938 C 25.84375 8.105469 25.84375 8.105469 26.128906 7.253906 C 25.941406 7.289062 25.753906 7.324219 25.558594 7.359375 C 25.558594 7.183594 25.558594 7.007812 25.558594 6.828125 C 25.746094 6.828125 25.933594 6.828125 26.128906 6.828125 C 26.035156 6.707031 25.941406 6.589844 25.84375 6.464844 C 25.558594 6.078125 25.558594 6.078125 25.558594 5.867188 C 24.464844 5.59375 23.972656 5.671875 22.71875 5.761719 C 22.71875 5.585938 22.71875 5.40625 22.71875 5.226562 C 22.25 5.191406 21.78125 5.15625 21.300781 5.121094 C 21.300781 5.050781 21.300781 4.980469 21.300781 4.90625 C 21.019531 4.871094 20.738281 4.835938 20.449219 4.800781 C 20.066406 4.730469 19.6875 4.660156 19.3125 4.585938 Z M 19.3125 4.585938 "/>
<path style=" stroke:none;fill-rule:nonzero;fill:rgb(49.803922%,61.176473%,69.411767%);fill-opacity:1;" d="M 11.644531 6.1875 C 11.988281 6.492188 11.9375 6.605469 11.601562 6.917969 C 11.433594 7.035156 11.265625 7.152344 11.09375 7.273438 C 10.910156 7.40625 10.726562 7.535156 10.542969 7.667969 C 10.445312 7.738281 10.347656 7.808594 10.246094 7.882812 C 9.699219 8.285156 9.191406 8.695312 8.679688 9.105469 C 8.578125 9.1875 8.480469 9.269531 8.375 9.351562 C 8.140625 9.539062 7.902344 9.730469 7.667969 9.921875 C 7.480469 9.921875 7.292969 9.921875 7.101562 9.921875 C 6.542969 9.488281 5.988281 9.054688 5.429688 8.621094 C 5.273438 8.496094 5.117188 8.375 4.953125 8.25 C 4.800781 8.128906 4.648438 8.011719 4.492188 7.890625 C 4.351562 7.78125 4.214844 7.671875 4.070312 7.558594 C 3.125 6.792969 3.125 6.792969 3.125 6.398438 C 3.3125 6.398438 3.5 6.398438 3.691406 6.398438 C 3.78125 6.488281 3.871094 6.582031 3.960938 6.671875 C 4.640625 7.347656 5.347656 8 6.246094 8.640625 C 6.339844 8.570312 6.433594 8.5 6.53125 8.425781 C 7.09375 8.496094 7.65625 8.566406 8.234375 8.640625 C 9.625 7.863281 10.621094 7.035156 11.644531 6.1875 Z M 11.644531 6.1875 "/>
<path style=" stroke:none;fill-rule:nonzero;fill:rgb(45.490196%,57.254905%,64.313728%);fill-opacity:1;" d="M 2.554688 4.691406 C 3.210938 4.691406 3.210938 4.691406 3.976562 4.800781 C 4.371094 5.070312 4.585938 5.359375 4.828125 5.652344 C 5.007812 5.796875 5.195312 5.941406 5.394531 6.078125 C 5.113281 6.132812 5.113281 6.132812 4.828125 6.1875 C 4.640625 6.152344 4.453125 6.117188 4.261719 6.078125 C 4.167969 6.1875 4.074219 6.292969 3.976562 6.398438 C 3.695312 6.363281 3.414062 6.328125 3.125 6.292969 C 3.03125 6.398438 2.9375 6.503906 2.839844 6.613281 C 2.652344 6.367188 2.464844 6.121094 2.273438 5.867188 C 1.898438 5.832031 1.523438 5.796875 1.136719 5.761719 C 1.277344 5.289062 1.730469 5.042969 2.554688 4.691406 Z M 2.554688 4.691406 "/>
<path style=" stroke:none;fill-rule:nonzero;fill:rgb(43.529412%,56.862748%,66.274512%);fill-opacity:1;" d="M 44.871094 8.214844 C 45.722656 8.214844 45.722656 8.214844 46.167969 8.347656 C 46.59375 8.542969 46.855469 8.734375 47.144531 8.960938 C 47.3125 8.945312 47.480469 8.933594 47.652344 8.917969 C 48.355469 8.871094 48.988281 8.84375 49.699219 8.851562 C 50.515625 9.09375 50.515625 9.09375 51.121094 9.386719 C 51.289062 9.449219 51.460938 9.515625 51.632812 9.578125 C 51.746094 9.621094 51.855469 9.664062 51.972656 9.707031 C 51.878906 9.8125 51.785156 9.917969 51.6875 10.027344 C 48.699219 10.054688 48.699219 10.054688 47.703125 9.734375 C 47.289062 9.519531 46.9375 9.296875 46.574219 9.066406 C 46.421875 9.007812 46.265625 8.953125 46.105469 8.890625 C 45.722656 8.746094 45.722656 8.746094 45.722656 8.535156 C 45.441406 8.5 45.160156 8.464844 44.871094 8.425781 C 44.871094 8.355469 44.871094 8.285156 44.871094 8.214844 Z M 44.871094 8.214844 "/>
<path style=" stroke:none;fill-rule:nonzero;fill:rgb(41.568628%,58.039218%,66.666669%);fill-opacity:1;" d="M 58.789062 8.640625 C 59.617188 8.683594 60.15625 8.734375 60.859375 8.910156 C 61.773438 9.097656 62.335938 9.101562 63.367188 9.085938 C 63.660156 9.082031 63.953125 9.082031 64.257812 9.078125 C 64.515625 9.074219 64.769531 9.070312 65.035156 9.066406 C 65.316406 9.066406 65.597656 9.066406 65.886719 9.066406 C 65.886719 9.136719 65.886719 9.207031 65.886719 9.28125 C 65.605469 9.28125 65.324219 9.28125 65.035156 9.28125 C 65.035156 9.351562 65.035156 9.421875 65.035156 9.492188 C 65.410156 9.492188 65.785156 9.492188 66.171875 9.492188 C 66.171875 9.5625 66.171875 9.632812 66.171875 9.707031 C 65.515625 9.742188 64.859375 9.777344 64.183594 9.8125 C 64.183594 9.742188 64.183594 9.671875 64.183594 9.601562 C 63.992188 9.609375 63.800781 9.617188 63.601562 9.628906 C 63.347656 9.636719 63.097656 9.648438 62.835938 9.660156 C 62.585938 9.671875 62.335938 9.683594 62.078125 9.695312 C 61.363281 9.707031 60.875 9.691406 60.207031 9.601562 C 59.449219 9.300781 58.953125 9.054688 58.789062 8.640625 Z M 58.789062 8.640625 "/>
<path style=" stroke:none;fill-rule:nonzero;fill:rgb(46.666667%,54.901963%,60.392159%);fill-opacity:1;" d="M 55.949219 4.480469 C 56.199219 5.125 56.265625 5.75 56.25 6.398438 C 56.25 6.492188 56.246094 6.585938 56.246094 6.679688 C 56.242188 6.90625 56.238281 7.132812 56.230469 7.359375 C 55.355469 7 55.242188 6.722656 55.167969 6.238281 C 55.132812 6.058594 55.132812 6.058594 55.101562 5.875 C 55.097656 5.59375 55.152344 5.386719 55.378906 5.121094 C 55.097656 5.121094 54.816406 5.121094 54.527344 5.121094 C 54.242188 5.335938 54.109375 5.527344 53.960938 5.761719 C 53.867188 5.867188 53.773438 5.972656 53.675781 6.078125 C 53.488281 6.078125 53.300781 6.078125 53.109375 6.078125 C 53.140625 5.832031 53.175781 5.585938 53.214844 5.339844 C 53.234375 5.203125 53.253906 5.066406 53.273438 4.921875 C 53.3125 4.8125 53.351562 4.703125 53.390625 4.585938 C 54.230469 4.429688 55.023438 4.472656 55.949219 4.480469 Z M 55.949219 4.480469 "/>
<path style=" stroke:none;fill-rule:nonzero;fill:rgb(81.960785%,52.156866%,41.960785%);fill-opacity:1;" d="M 21.867188 5.652344 C 22.054688 5.6875 22.242188 5.722656 22.4375 5.761719 C 22.34375 5.832031 22.25 5.902344 22.152344 5.972656 C 22.433594 6.007812 22.714844 6.042969 23.003906 6.078125 C 22.816406 6.152344 22.628906 6.222656 22.4375 6.292969 C 22.253906 6.515625 22.253906 6.515625 22.152344 6.71875 C 22.621094 6.71875 23.089844 6.71875 23.570312 6.71875 C 23.570312 6.789062 23.570312 6.859375 23.570312 6.933594 C 22.820312 6.933594 22.074219 6.933594 21.300781 6.933594 C 21.300781 6.652344 21.300781 6.371094 21.300781 6.078125 C 20.738281 6.078125 20.175781 6.078125 19.597656 6.078125 C 19.597656 6.363281 19.597656 6.644531 19.597656 6.933594 C 18.332031 6.984375 18.332031 6.984375 17.039062 7.039062 C 16.945312 7.214844 16.851562 7.390625 16.757812 7.574219 C 16.945312 7.609375 17.132812 7.644531 17.324219 7.679688 C 17.042969 7.679688 16.761719 7.679688 16.472656 7.679688 C 16.472656 7.398438 16.472656 7.117188 16.472656 6.828125 C 17.222656 6.828125 17.972656 6.828125 18.742188 6.828125 C 18.742188 6.582031 18.742188 6.332031 18.742188 6.078125 C 18.929688 6.078125 19.117188 6.078125 19.3125 6.078125 C 19.3125 6.007812 19.3125 5.9375 19.3125 5.867188 C 20.15625 5.867188 21 5.867188 21.867188 5.867188 C 21.867188 5.796875 21.867188 5.726562 21.867188 5.652344 Z M 21.867188 5.652344 "/>
<path style=" stroke:none;fill-rule:nonzero;fill:rgb(36.470589%,42.745098%,53.333336%);fill-opacity:1;" d="M 42.882812 4.585938 C 42.976562 4.65625 43.070312 4.726562 43.167969 4.800781 C 42.980469 4.800781 42.792969 4.800781 42.601562 4.800781 C 42.507812 4.90625 42.414062 5.011719 42.316406 5.121094 C 41.847656 5.121094 41.378906 5.121094 40.894531 5.121094 C 40.898438 5.179688 40.898438 5.238281 40.902344 5.296875 C 40.933594 6.839844 40.824219 8.378906 40.613281 9.921875 C 40.519531 9.921875 40.425781 9.921875 40.328125 9.921875 C 40.148438 8.75 40.015625 7.585938 40.007812 6.414062 C 40.007812 6.316406 40.007812 6.21875 40.003906 6.121094 C 40.007812 5.597656 40.09375 5.101562 40.328125 4.585938 C 41.324219 4.460938 41.875 4.496094 42.882812 4.585938 Z M 42.882812 4.585938 "/>
<path style=" stroke:none;fill-rule:nonzero;fill:rgb(41.568628%,57.254905%,67.450982%);fill-opacity:1;" d="M 11.644531 5.011719 C 11.925781 5.046875 12.207031 5.082031 12.496094 5.121094 C 12.402344 5.191406 12.308594 5.261719 12.210938 5.332031 C 12.585938 5.402344 12.960938 5.472656 13.347656 5.546875 C 12.972656 5.828125 12.597656 6.109375 12.210938 6.398438 C 12.023438 6.398438 11.835938 6.398438 11.644531 6.398438 C 11.363281 6.609375 11.082031 6.824219 10.792969 7.039062 C 10.511719 7.039062 10.230469 7.039062 9.941406 7.039062 C 10.09375 6.554688 10.449219 6.191406 11.074219 5.761719 C 10.886719 5.761719 10.699219 5.761719 10.507812 5.761719 C 10.507812 5.691406 10.507812 5.621094 10.507812 5.546875 C 10.695312 5.546875 10.882812 5.546875 11.074219 5.546875 C 11.261719 5.371094 11.449219 5.195312 11.644531 5.011719 Z M 11.644531 5.011719 "/>
<path style=" stroke:none;fill-rule:nonzero;fill:rgb(45.490196%,60.392159%,67.843139%);fill-opacity:1;" d="M 55.664062 5.761719 C 55.757812 5.761719 55.851562 5.761719 55.949219 5.761719 C 56.21875 7.085938 56.386719 8.382812 55.949219 9.707031 C 55.667969 9.707031 55.386719 9.707031 55.097656 9.707031 C 54.738281 9.320312 54.914062 9.039062 55.097656 8.640625 C 55.152344 8.410156 55.203125 8.179688 55.246094 7.949219 C 55.273438 7.820312 55.296875 7.691406 55.324219 7.558594 C 55.347656 7.429688 55.371094 7.296875 55.398438 7.160156 C 55.421875 7.027344 55.449219 6.890625 55.476562 6.753906 C 55.539062 6.421875 55.601562 6.089844 55.664062 5.761719 Z M 55.664062 5.761719 "/>
<path style=" stroke:none;fill-rule:nonzero;fill:rgb(45.882353%,60.392159%,68.627453%);fill-opacity:1;" d="M 44.304688 6.613281 C 44.492188 6.613281 44.679688 6.613281 44.871094 6.613281 C 44.871094 6.824219 44.871094 7.035156 44.871094 7.253906 C 45.339844 7.253906 45.808594 7.253906 46.292969 7.253906 C 46.480469 7.429688 46.667969 7.605469 46.859375 7.785156 C 46.671875 7.855469 46.484375 7.925781 46.292969 8 C 46.292969 7.929688 46.292969 7.859375 46.292969 7.785156 C 46.105469 7.785156 45.917969 7.785156 45.722656 7.785156 C 45.722656 7.714844 45.722656 7.644531 45.722656 7.574219 C 45.441406 7.609375 45.160156 7.644531 44.871094 7.679688 C 44.683594 7.679688 44.496094 7.679688 44.304688 7.679688 C 44.492188 7.855469 44.679688 8.03125 44.871094 8.214844 C 44.585938 8.128906 44.296875 8.046875 44.003906 7.960938 C 42.988281 7.6875 42.105469 7.570312 40.894531 7.464844 C 41.082031 7.429688 41.269531 7.394531 41.464844 7.359375 C 41.464844 7.289062 41.464844 7.21875 41.464844 7.148438 C 41.933594 7.113281 42.402344 7.078125 42.882812 7.039062 C 42.789062 7.109375 42.695312 7.179688 42.601562 7.253906 C 42.320312 7.253906 42.039062 7.253906 41.746094 7.253906 C 41.746094 7.324219 41.746094 7.394531 41.746094 7.464844 C 42.824219 7.363281 42.824219 7.363281 43.734375 7.148438 C 43.921875 7.148438 44.109375 7.148438 44.304688 7.148438 C 44.304688 6.96875 44.304688 6.792969 44.304688 6.613281 Z M 44.304688 6.613281 "/>
<path style=" stroke:none;fill-rule:nonzero;fill:rgb(43.529412%,56.470591%,64.705884%);fill-opacity:1;" d="M 34.363281 4.691406 C 35.890625 4.90625 36.953125 5.136719 37.664062 5.691406 C 37.699219 5.785156 37.734375 5.878906 37.773438 5.972656 C 37.585938 5.972656 37.398438 5.972656 37.203125 5.972656 C 37.109375 6.078125 37.015625 6.183594 36.921875 6.292969 C 36.886719 6.226562 36.851562 6.15625 36.8125 6.085938 C 36.753906 6.015625 36.695312 5.941406 36.636719 5.867188 C 36.449219 5.832031 36.261719 5.796875 36.066406 5.761719 C 36.160156 5.691406 36.253906 5.621094 36.351562 5.546875 C 36.027344 5.53125 36.027344 5.53125 35.695312 5.511719 C 34.871094 5.433594 34.636719 5.347656 34.078125 5.121094 C 33.890625 5.121094 33.707031 5.121094 33.511719 5.121094 C 33.417969 5.050781 33.324219 4.980469 33.226562 4.90625 C 32.007812 4.90625 30.792969 4.90625 29.535156 4.90625 C 30.996094 4.539062 32.664062 4.617188 34.363281 4.691406 Z M 34.363281 4.691406 "/>
<path style=" stroke:none;fill-rule:nonzero;fill:rgb(50.588238%,60.784316%,67.058825%);fill-opacity:1;" d="M 51.402344 4.585938 C 51.402344 4.980469 51.191406 5.03125 50.5 5.3125 C 49.875 5.570312 49.265625 5.828125 48.6875 6.101562 C 47.945312 6.421875 47.179688 6.667969 46.292969 6.933594 C 46.105469 6.792969 45.917969 6.652344 45.722656 6.507812 C 46.097656 6.347656 46.097656 6.347656 46.574219 6.1875 C 46.855469 6.1875 47.136719 6.1875 47.429688 6.1875 C 48.664062 5.789062 48.664062 5.789062 49.132812 5.226562 C 49.132812 5.15625 49.132812 5.085938 49.132812 5.011719 C 49.320312 5.011719 49.507812 5.011719 49.699219 5.011719 C 49.699219 4.941406 49.699219 4.871094 49.699219 4.800781 C 50.261719 4.730469 50.824219 4.660156 51.402344 4.585938 Z M 51.402344 4.585938 "/>
<path style=" stroke:none;fill-rule:nonzero;fill:rgb(87.843138%,54.11765%,45.882353%);fill-opacity:1;" d="M 15.335938 9.066406 C 16.902344 9.148438 16.902344 9.148438 17.660156 9.292969 C 18.21875 9.421875 18.21875 9.421875 19.027344 9.28125 C 19.027344 9.386719 19.027344 9.492188 19.027344 9.601562 C 20.605469 9.710938 20.605469 9.710938 22.152344 9.601562 C 22.246094 9.707031 22.339844 9.8125 22.4375 9.921875 C 19.96875 10.105469 17.933594 9.957031 15.8125 9.4375 C 15.65625 9.386719 15.5 9.332031 15.335938 9.28125 C 15.335938 9.210938 15.335938 9.140625 15.335938 9.066406 Z M 15.335938 9.066406 "/>
<path style=" stroke:none;fill-rule:nonzero;fill:rgb(41.176471%,56.470591%,66.274512%);fill-opacity:1;" d="M 48.5625 4.585938 C 49.3125 4.585938 50.0625 4.585938 50.835938 4.585938 C 50.835938 4.65625 50.835938 4.726562 50.835938 4.800781 C 50.460938 4.800781 50.085938 4.800781 49.699219 4.800781 C 49.699219 4.871094 49.699219 4.941406 49.699219 5.011719 C 49.511719 5.011719 49.324219 5.011719 49.132812 5.011719 C 49.132812 5.082031 49.132812 5.152344 49.132812 5.226562 C 49.320312 5.261719 49.507812 5.296875 49.699219 5.332031 C 48.9375 5.714844 48.160156 6.007812 47.144531 6.292969 C 47.050781 6.222656 46.957031 6.152344 46.859375 6.078125 C 47.042969 5.902344 47.234375 5.722656 47.429688 5.546875 C 47.429688 5.441406 47.429688 5.335938 47.429688 5.226562 C 47.710938 5.15625 47.992188 5.085938 48.28125 5.011719 C 48.484375 4.792969 48.484375 4.792969 48.5625 4.585938 Z M 48.5625 4.585938 "/>
<path style=" stroke:none;fill-rule:nonzero;fill:rgb(49.019608%,60.000002%,67.450982%);fill-opacity:1;" d="M 59.640625 7.679688 C 60.207031 7.785156 60.207031 7.785156 60.507812 8.101562 C 60.597656 8.207031 60.683594 8.316406 60.777344 8.425781 C 61.195312 8.742188 61.863281 8.777344 62.703125 8.890625 C 63.574219 8.988281 64.414062 9.03125 65.320312 9.066406 C 65.320312 9.101562 65.320312 9.136719 65.320312 9.171875 C 63.1875 9.230469 61.382812 9.25 59.53125 8.808594 C 59.070312 8.640625 59.070312 8.640625 58.769531 8.234375 C 58.777344 8.121094 58.78125 8.007812 58.789062 7.894531 C 58.976562 7.894531 59.164062 7.894531 59.355469 7.894531 C 59.449219 7.824219 59.542969 7.753906 59.640625 7.679688 Z M 59.640625 7.679688 "/>
<path style=" stroke:none;fill-rule:nonzero;fill:rgb(51.372552%,62.352943%,70.19608%);fill-opacity:1;" d="M 35.214844 7.679688 C 35.519531 7.699219 35.824219 7.714844 36.140625 7.734375 C 37.210938 7.796875 37.210938 7.796875 38.339844 7.785156 C 38.527344 7.785156 38.714844 7.785156 38.90625 7.785156 C 38.832031 8.476562 38.167969 8.882812 36.921875 9.386719 C 36.15625 9.605469 36.15625 9.605469 35.5 9.707031 C 35.21875 9.671875 34.9375 9.636719 34.648438 9.601562 C 36.28125 9.171875 36.28125 9.171875 36.921875 9.171875 C 37.320312 8.890625 37.59375 8.632812 37.773438 8.320312 C 37.679688 8.355469 37.585938 8.390625 37.488281 8.425781 C 37.207031 8.480469 37.207031 8.480469 36.921875 8.535156 C 36.828125 8.355469 36.734375 8.179688 36.636719 8 C 36.167969 7.964844 35.699219 7.929688 35.214844 7.894531 C 35.214844 7.824219 35.214844 7.753906 35.214844 7.679688 Z M 35.214844 7.679688 "/>
<path style=" stroke:none;fill-rule:nonzero;fill:rgb(41.568628%,54.901963%,63.921571%);fill-opacity:1;" d="M 42.882812 5.761719 C 42.976562 5.761719 43.070312 5.761719 43.167969 5.761719 C 43.167969 6.007812 43.167969 6.253906 43.167969 6.507812 C 43.730469 6.4375 44.292969 6.367188 44.871094 6.292969 C 44.871094 6.398438 44.871094 6.503906 44.871094 6.613281 C 44.683594 6.613281 44.496094 6.613281 44.304688 6.613281 C 44.304688 6.789062 44.304688 6.964844 44.304688 7.148438 C 44.117188 7.148438 43.929688 7.148438 43.734375 7.148438 C 43.734375 7.21875 43.734375 7.289062 43.734375 7.359375 C 43.921875 7.394531 44.109375 7.429688 44.304688 7.464844 C 44.023438 7.464844 43.742188 7.464844 43.453125 7.464844 C 43.453125 7.394531 43.453125 7.324219 43.453125 7.253906 C 42.890625 7.324219 42.328125 7.394531 41.746094 7.464844 C 41.746094 7.394531 41.746094 7.324219 41.746094 7.253906 C 41.933594 7.21875 42.121094 7.183594 42.316406 7.148438 C 42.128906 7.113281 41.941406 7.078125 41.746094 7.039062 C 42.027344 7.003906 42.308594 6.96875 42.601562 6.933594 C 42.695312 6.546875 42.789062 6.160156 42.882812 5.761719 Z M 42.882812 5.761719 "/>
<path style=" stroke:none;fill-rule:nonzero;fill:rgb(49.019608%,60.000002%,65.882355%);fill-opacity:1;" d="M 67.875 8.320312 C 69.210938 8.578125 69.210938 8.578125 69.578125 8.851562 C 69.578125 9.066406 69.578125 9.066406 69.207031 9.253906 C 68.726562 9.386719 68.726562 9.386719 68.160156 9.386719 C 68.066406 9.28125 67.972656 9.175781 67.875 9.066406 C 67.125 9.066406 66.375 9.066406 65.605469 9.066406 C 65.820312 9.003906 66.039062 8.9375 66.261719 8.875 C 66.839844 8.695312 67.363281 8.523438 67.875 8.320312 Z M 67.875 8.320312 "/>
<path style=" stroke:none;fill-rule:nonzero;fill:rgb(89.411765%,50.980395%,40.784314%);fill-opacity:1;" d="M 25.558594 6.078125 C 25.839844 6.078125 26.121094 6.078125 26.410156 6.078125 C 26.636719 6.601562 26.75 7.109375 26.765625 7.640625 C 26.773438 7.777344 26.78125 7.910156 26.789062 8.050781 C 26.691406 8.445312 26.457031 8.644531 25.84375 8.960938 C 25.386719 8.53125 25.789062 8.214844 26.128906 7.785156 C 26.175781 7.488281 26.175781 7.488281 26.128906 7.253906 C 25.847656 7.304688 25.847656 7.304688 25.558594 7.359375 C 25.558594 7.183594 25.558594 7.007812 25.558594 6.828125 C 25.746094 6.828125 25.933594 6.828125 26.128906 6.828125 C 25.941406 6.582031 25.753906 6.332031 25.558594 6.078125 Z M 25.558594 6.078125 "/>
<path style=" stroke:none;fill-rule:nonzero;fill:rgb(41.176471%,55.686277%,62.7451%);fill-opacity:1;" d="M 64.539062 4.632812 C 64.792969 4.644531 65.046875 4.65625 65.308594 4.667969 C 65.5 4.675781 65.691406 4.683594 65.886719 4.691406 C 65.707031 4.722656 65.523438 4.75 65.335938 4.78125 C 64.65625 4.894531 64.65625 4.894531 64.46875 5.226562 C 64.28125 5.226562 64.09375 5.226562 63.898438 5.226562 C 63.804688 5.296875 63.710938 5.367188 63.617188 5.441406 C 63.242188 5.371094 62.867188 5.300781 62.480469 5.226562 C 62.480469 5.15625 62.480469 5.085938 62.480469 5.011719 C 62.292969 5.011719 62.105469 5.011719 61.910156 5.011719 C 61.910156 4.90625 61.910156 4.800781 61.910156 4.691406 C 62.839844 4.582031 63.578125 4.589844 64.539062 4.632812 Z M 64.539062 4.632812 "/>
<path style=" stroke:none;fill-rule:nonzero;fill:rgb(54.11765%,63.921571%,72.941178%);fill-opacity:1;" d="M 59.355469 5.332031 C 59.355469 5.761719 58.855469 5.945312 58.21875 6.292969 C 57.917969 6.632812 57.886719 6.882812 57.882812 7.238281 C 57.878906 7.351562 57.875 7.460938 57.871094 7.574219 C 57.9375 7.898438 58.136719 8.132812 58.503906 8.425781 C 58.316406 8.496094 58.128906 8.566406 57.9375 8.640625 C 56.949219 7.664062 56.921875 7.019531 57.859375 6.03125 C 58.253906 5.734375 58.703125 5.554688 59.355469 5.332031 Z M 59.355469 5.332031 "/>
<path style=" stroke:none;fill-rule:nonzero;fill:rgb(41.960785%,56.862748%,64.705884%);fill-opacity:1;" d="M 45.722656 7.574219 C 45.722656 7.644531 45.722656 7.714844 45.722656 7.785156 C 46.097656 7.785156 46.472656 7.785156 46.859375 7.785156 C 47.179688 8.292969 47.179688 8.292969 46.859375 8.535156 C 45.296875 8.375 45.296875 8.375 44.625 8.105469 C 44.304688 7.894531 44.304688 7.894531 44.304688 7.679688 C 44.117188 7.644531 43.929688 7.609375 43.734375 7.574219 C 44.625 7.460938 44.867188 7.472656 45.722656 7.574219 Z M 45.722656 7.574219 "/>
<path style=" stroke:none;fill-rule:nonzero;fill:rgb(44.313726%,56.470591%,64.705884%);fill-opacity:1;" d="M 13.914062 4.585938 C 13.667969 5.199219 13.667969 5.199219 13.347656 5.441406 C 12.796875 5.40625 12.796875 5.40625 12.210938 5.332031 C 12.117188 5.226562 12.023438 5.121094 11.929688 5.011719 C 11.742188 4.976562 11.554688 4.941406 11.359375 4.90625 C 11.453125 4.800781 11.546875 4.695312 11.644531 4.585938 C 12.578125 4.46875 12.984375 4.5 13.914062 4.585938 Z M 13.914062 4.585938 "/>
<path style=" stroke:none;fill-rule:nonzero;fill:rgb(45.882353%,60.000002%,65.490198%);fill-opacity:1;" d="M 60.777344 9.492188 C 60.917969 9.511719 61.058594 9.527344 61.203125 9.546875 C 62.207031 9.621094 63.160156 9.605469 64.183594 9.601562 C 64.183594 9.671875 64.183594 9.742188 64.183594 9.8125 C 65.308594 9.707031 66.433594 9.601562 67.59375 9.492188 C 67.59375 9.5625 67.59375 9.632812 67.59375 9.707031 C 65.285156 10.09375 63.507812 9.996094 61.058594 9.8125 C 60.964844 9.707031 60.871094 9.601562 60.777344 9.492188 Z M 60.777344 9.492188 "/>
<path style=" stroke:none;fill-rule:nonzero;fill:rgb(43.921569%,51.764709%,57.647061%);fill-opacity:1;" d="M 55.949219 4.480469 C 55.949219 4.585938 55.949219 4.691406 55.949219 4.800781 C 55.292969 4.835938 54.636719 4.871094 53.960938 4.90625 C 54.054688 5.011719 54.148438 5.117188 54.242188 5.226562 C 54.125 5.527344 53.933594 5.792969 53.675781 6.078125 C 53.488281 6.078125 53.300781 6.078125 53.109375 6.078125 C 53.140625 5.832031 53.175781 5.585938 53.214844 5.339844 C 53.234375 5.203125 53.253906 5.066406 53.273438 4.921875 C 53.3125 4.8125 53.351562 4.703125 53.390625 4.585938 C 54.230469 4.429688 55.023438 4.472656 55.949219 4.480469 Z M 55.949219 4.480469 "/>
<path style=" stroke:none;fill-rule:nonzero;fill:rgb(45.490196%,55.686277%,62.7451%);fill-opacity:1;" d="M 3.320312 4.726562 C 3.644531 4.761719 3.644531 4.761719 3.976562 4.800781 C 3.976562 5.046875 3.976562 5.292969 3.976562 5.546875 C 3.601562 5.546875 3.226562 5.546875 2.839844 5.546875 C 2.839844 5.40625 2.839844 5.265625 2.839844 5.121094 C 2.746094 5.296875 2.652344 5.472656 2.554688 5.652344 C 2.273438 5.617188 1.992188 5.582031 1.703125 5.546875 C 1.640625 5.246094 1.605469 5.070312 2.042969 4.8125 C 2.554688 4.691406 2.554688 4.691406 3.320312 4.726562 Z M 3.320312 4.726562 "/>
<path style=" stroke:none;fill-rule:nonzero;fill:rgb(49.019608%,57.647061%,62.7451%);fill-opacity:1;" d="M 53.390625 6.933594 C 53.898438 7.257812 54.023438 7.484375 53.996094 7.859375 C 53.988281 8 53.988281 8 53.980469 8.144531 C 53.976562 8.242188 53.96875 8.339844 53.960938 8.441406 C 53.945312 8.632812 53.933594 8.828125 53.925781 9.019531 C 53.914062 9.148438 53.914062 9.148438 53.90625 9.28125 C 53.90625 9.519531 53.90625 9.519531 54.527344 9.707031 C 54.902344 9.78125 55.28125 9.851562 55.664062 9.921875 C 55.003906 9.960938 54.339844 9.996094 53.675781 10.027344 C 52.898438 9.734375 53.25 8.875 53.214844 8.480469 C 53.199219 8.34375 53.183594 8.207031 53.171875 8.066406 C 53.15625 7.9375 53.144531 7.808594 53.132812 7.675781 C 53.121094 7.558594 53.109375 7.4375 53.097656 7.316406 C 53.109375 7.039062 53.109375 7.039062 53.390625 6.933594 Z M 53.390625 6.933594 "/>
<path style=" stroke:none;fill-rule:nonzero;fill:rgb(91.764706%,50.196081%,32.549021%);fill-opacity:1;" d="M 24.707031 7.679688 C 24.800781 7.679688 24.894531 7.679688 24.992188 7.679688 C 25.085938 8.066406 25.179688 8.453125 25.277344 8.851562 C 25.089844 8.851562 24.902344 8.851562 24.707031 8.851562 C 24.707031 8.921875 24.707031 8.992188 24.707031 9.066406 C 24.238281 9.03125 23.769531 8.996094 23.289062 8.960938 C 23.289062 8.890625 23.289062 8.820312 23.289062 8.746094 C 23.476562 8.746094 23.664062 8.746094 23.855469 8.746094 C 23.855469 8.464844 23.855469 8.183594 23.855469 7.894531 C 24.136719 7.894531 24.417969 7.894531 24.707031 7.894531 C 24.707031 7.824219 24.707031 7.753906 24.707031 7.679688 Z M 24.707031 7.679688 "/>
<path style=" stroke:none;fill-rule:nonzero;fill:rgb(49.803922%,59.607846%,66.666669%);fill-opacity:1;" d="M 47.996094 4.800781 C 48.277344 4.835938 48.558594 4.871094 48.847656 4.90625 C 48.472656 5.046875 48.097656 5.1875 47.710938 5.332031 C 47.804688 5.402344 47.898438 5.472656 47.996094 5.546875 C 47.4375 5.710938 46.914062 5.855469 46.273438 5.972656 C 45.6875 6.085938 45.316406 6.21875 44.871094 6.398438 C 44.871094 6.078125 44.871094 6.078125 45.527344 5.820312 C 45.78125 5.730469 46.03125 5.640625 46.292969 5.546875 C 46.449219 5.464844 46.609375 5.382812 46.769531 5.300781 C 46.957031 5.210938 46.957031 5.210938 47.144531 5.121094 C 47.332031 5.121094 47.519531 5.121094 47.710938 5.121094 C 47.804688 5.015625 47.898438 4.910156 47.996094 4.800781 Z M 47.996094 4.800781 "/>
<path style=" stroke:none;fill-rule:nonzero;fill:rgb(45.490196%,55.29412%,61.56863%);fill-opacity:1;" d="M 42.882812 4.585938 C 42.976562 4.65625 43.070312 4.726562 43.167969 4.800781 C 42.980469 4.800781 42.792969 4.800781 42.601562 4.800781 C 42.507812 4.90625 42.414062 5.011719 42.316406 5.121094 C 41.660156 5.121094 41.003906 5.121094 40.328125 5.121094 C 40.328125 4.945312 40.328125 4.769531 40.328125 4.585938 C 41.324219 4.460938 41.875 4.496094 42.882812 4.585938 Z M 42.882812 4.585938 "/>
<path style=" stroke:none;fill-rule:nonzero;fill:rgb(41.176471%,58.823532%,68.627453%);fill-opacity:1;" d="M 11.644531 5.011719 C 11.925781 5.046875 12.207031 5.082031 12.496094 5.121094 C 12.402344 5.191406 12.308594 5.261719 12.210938 5.332031 C 12.585938 5.402344 12.960938 5.472656 13.347656 5.546875 C 13.121094 5.578125 12.890625 5.609375 12.65625 5.640625 C 11.890625 5.730469 11.890625 5.730469 11.644531 5.972656 C 11.457031 5.972656 11.269531 5.972656 11.074219 5.972656 C 11.074219 5.902344 11.074219 5.832031 11.074219 5.761719 C 10.886719 5.761719 10.699219 5.761719 10.507812 5.761719 C 10.507812 5.691406 10.507812 5.621094 10.507812 5.546875 C 10.695312 5.546875 10.882812 5.546875 11.074219 5.546875 C 11.261719 5.371094 11.449219 5.195312 11.644531 5.011719 Z M 11.644531 5.011719 "/>
<path style=" stroke:none;fill-rule:nonzero;fill:rgb(87.843138%,54.11765%,44.313726%);fill-opacity:1;" d="M 19.878906 4.800781 C 19.597656 4.871094 19.316406 4.941406 19.027344 5.011719 C 18.847656 5.085938 18.664062 5.160156 18.476562 5.234375 C 17.878906 5.445312 17.558594 5.503906 16.757812 5.546875 C 16.664062 5.441406 16.570312 5.335938 16.472656 5.226562 C 17.550781 4.78125 18.296875 4.636719 19.878906 4.800781 Z M 19.878906 4.800781 "/>
<path style=" stroke:none;fill-rule:nonzero;fill:rgb(87.843138%,61.56863%,52.549022%);fill-opacity:1;" d="M 16.1875 5.332031 C 15.902344 5.652344 15.902344 5.652344 15.371094 5.828125 C 14.25 6.296875 13.894531 6.957031 13.632812 7.574219 C 13.539062 7.574219 13.445312 7.574219 13.347656 7.574219 C 13.167969 6.792969 13.769531 6.09375 15.085938 5.480469 C 15.621094 5.332031 15.621094 5.332031 16.1875 5.332031 Z M 16.1875 5.332031 "/>
<path style=" stroke:none;fill-rule:nonzero;fill:rgb(89.019608%,55.686277%,43.529412%);fill-opacity:1;" d="M 23.003906 8.960938 C 23.847656 8.960938 24.691406 8.960938 25.558594 8.960938 C 24.585938 9.46875 24.585938 9.46875 23.804688 9.585938 C 23.546875 9.59375 23.546875 9.59375 23.289062 9.601562 C 23.003906 9.492188 23.003906 9.492188 22.984375 9.21875 C 22.992188 9.132812 22.996094 9.046875 23.003906 8.960938 Z M 23.003906 8.960938 "/>
<path style=" stroke:none;fill-rule:nonzero;fill:rgb(43.921569%,52.549022%,58.039218%);fill-opacity:1;" d="M 11.074219 4.800781 C 11.355469 4.871094 11.636719 4.941406 11.929688 5.011719 C 11.539062 5.28125 11.539062 5.28125 11.074219 5.546875 C 10.886719 5.546875 10.699219 5.546875 10.507812 5.546875 C 10.507812 5.617188 10.507812 5.6875 10.507812 5.761719 C 10.695312 5.761719 10.882812 5.761719 11.074219 5.761719 C 11.074219 5.832031 11.074219 5.902344 11.074219 5.972656 C 10.605469 6.042969 10.140625 6.113281 9.65625 6.1875 C 9.785156 6.035156 9.914062 5.882812 10.046875 5.734375 C 10.15625 5.605469 10.15625 5.605469 10.265625 5.476562 C 10.496094 5.242188 10.761719 5.023438 11.074219 4.800781 Z M 11.074219 4.800781 "/>
<path style=" stroke:none;fill-rule:nonzero;fill:rgb(47.058824%,58.431375%,67.843139%);fill-opacity:1;" d="M 8.519531 6.933594 C 9.222656 7.054688 9.667969 7.152344 10.222656 7.359375 C 10.035156 7.359375 9.847656 7.359375 9.65625 7.359375 C 9.46875 7.5 9.28125 7.640625 9.089844 7.785156 C 8.714844 7.785156 8.339844 7.785156 7.953125 7.785156 C 8.101562 7.492188 8.265625 7.21875 8.519531 6.933594 Z M 8.519531 6.933594 "/>
<path style=" stroke:none;fill-rule:nonzero;fill:rgb(81.568629%,56.862748%,45.490196%);fill-opacity:1;" d="M 19.3125 4.585938 C 21.089844 4.53125 22.28125 4.710938 23.855469 5.011719 C 23.761719 5.082031 23.667969 5.152344 23.570312 5.226562 C 23.074219 5.179688 22.578125 5.132812 22.082031 5.085938 C 21.804688 5.0625 21.527344 5.035156 21.242188 5.007812 C 20.449219 4.90625 19.945312 4.789062 19.3125 4.585938 Z M 19.3125 4.585938 "/>
<path style=" stroke:none;fill-rule:nonzero;fill:rgb(46.666667%,56.078434%,62.7451%);fill-opacity:1;" d="M 42.882812 5.761719 C 42.976562 5.761719 43.070312 5.761719 43.167969 5.761719 C 43.167969 6.007812 43.167969 6.253906 43.167969 6.507812 C 43.730469 6.4375 44.292969 6.367188 44.871094 6.292969 C 44.871094 6.398438 44.871094 6.503906 44.871094 6.613281 C 44.121094 6.71875 43.371094 6.824219 42.601562 6.933594 C 42.695312 6.546875 42.789062 6.160156 42.882812 5.761719 Z M 42.882812 5.761719 "/>
<path style=" stroke:none;fill-rule:nonzero;fill:rgb(40.784314%,54.509807%,61.960787%);fill-opacity:1;" d="M 54.242188 8.960938 C 54.523438 8.960938 54.804688 8.960938 55.097656 8.960938 C 55.097656 9.207031 55.097656 9.453125 55.097656 9.707031 C 55.472656 9.742188 55.847656 9.777344 56.230469 9.8125 C 56.136719 9.882812 56.042969 9.953125 55.949219 10.027344 C 55.097656 9.921875 55.097656 9.921875 54.242188 9.707031 C 54.191406 9.320312 54.191406 9.320312 54.242188 8.960938 Z M 54.242188 8.960938 "/>
<path style=" stroke:none;fill-rule:nonzero;fill:rgb(41.176471%,56.862748%,65.882355%);fill-opacity:1;" d="M 4.261719 6.078125 C 4.636719 6.078125 5.007812 6.078125 5.394531 6.078125 C 5.300781 6.363281 5.207031 6.644531 5.113281 6.933594 C 5.019531 6.863281 4.925781 6.792969 4.828125 6.71875 C 4.453125 6.753906 4.078125 6.789062 3.691406 6.828125 C 3.691406 6.6875 3.691406 6.546875 3.691406 6.398438 C 3.503906 6.363281 3.316406 6.328125 3.125 6.292969 C 3.40625 6.292969 3.6875 6.292969 3.976562 6.292969 C 4.070312 6.222656 4.164062 6.152344 4.261719 6.078125 Z M 4.261719 6.078125 "/>
<path style=" stroke:none;fill-rule:nonzero;fill:rgb(28.627452%,38.431373%,45.882353%);fill-opacity:1;" d="M 2.839844 5.011719 C 2.933594 5.082031 3.027344 5.152344 3.125 5.226562 C 3.03125 5.332031 2.9375 5.4375 2.839844 5.546875 C 3.121094 5.511719 3.402344 5.476562 3.691406 5.441406 C 3.597656 5.546875 3.503906 5.652344 3.40625 5.761719 C 1.773438 5.878906 1.773438 5.878906 1.136719 5.761719 C 1.230469 5.585938 1.324219 5.40625 1.421875 5.226562 C 1.792969 5.367188 2.167969 5.507812 2.554688 5.652344 C 2.554688 5.511719 2.554688 5.371094 2.554688 5.226562 C 2.367188 5.191406 2.179688 5.15625 1.988281 5.121094 C 2.269531 5.085938 2.550781 5.050781 2.839844 5.011719 Z M 2.839844 5.011719 "/>
<path style=" stroke:none;fill-rule:nonzero;fill:rgb(55.29412%,56.470591%,58.823532%);fill-opacity:1;" d="M 27.265625 7.253906 C 27.359375 7.253906 27.453125 7.253906 27.546875 7.253906 C 27.582031 7.867188 27.582031 7.867188 27.265625 8.105469 C 27.175781 8.601562 27.175781 8.601562 27.546875 9.066406 C 27.171875 8.996094 26.796875 8.925781 26.410156 8.851562 C 26.410156 8.457031 26.550781 8.1875 26.839844 7.8125 C 26.917969 7.707031 26.996094 7.601562 27.078125 7.496094 C 27.140625 7.414062 27.199219 7.335938 27.265625 7.253906 Z M 27.265625 7.253906 "/>
<path style=" stroke:none;fill-rule:nonzero;fill:rgb(91.764706%,50.196081%,34.117648%);fill-opacity:1;" d="M 26.128906 6.933594 C 26.222656 6.933594 26.316406 6.933594 26.410156 6.933594 C 26.46875 7.523438 26.339844 7.972656 25.84375 8.535156 C 25.65625 8.535156 25.46875 8.535156 25.277344 8.535156 C 25.308594 8.347656 25.34375 8.160156 25.382812 7.972656 C 25.402344 7.871094 25.421875 7.765625 25.441406 7.660156 C 25.554688 7.371094 25.742188 7.183594 26.128906 6.933594 Z M 26.128906 6.933594 "/>
<path style=" stroke:none;fill-rule:nonzero;fill:rgb(47.058824%,57.647061%,63.921571%);fill-opacity:1;" d="M 29.535156 9.492188 C 29.707031 9.511719 29.875 9.527344 30.050781 9.546875 C 30.703125 9.613281 30.703125 9.613281 31.523438 9.601562 C 32.09375 9.667969 32.664062 9.738281 33.226562 9.8125 C 33.039062 9.882812 32.851562 9.953125 32.660156 10.027344 C 31.53125 9.988281 30.570312 9.878906 29.535156 9.707031 C 29.535156 9.636719 29.535156 9.566406 29.535156 9.492188 Z M 29.535156 9.492188 "/>
<path style=" stroke:none;fill-rule:nonzero;fill:rgb(39.215687%,45.882353%,51.372552%);fill-opacity:1;" d="M 32.394531 4.667969 C 32.75 4.667969 33.101562 4.664062 33.46875 4.664062 C 34.363281 4.691406 34.363281 4.691406 34.933594 4.90625 C 34.464844 4.976562 33.996094 5.046875 33.511719 5.121094 C 33.417969 5.050781 33.324219 4.980469 33.226562 4.90625 C 32.007812 4.90625 30.792969 4.90625 29.535156 4.90625 C 30.585938 4.644531 31.144531 4.664062 32.394531 4.667969 Z M 32.394531 4.667969 "/>
<path style=" stroke:none;fill-rule:nonzero;fill:rgb(54.901963%,63.529414%,69.803923%);fill-opacity:1;" d="M 61.058594 8.746094 C 61.441406 8.777344 61.820312 8.816406 62.195312 8.851562 C 62.738281 8.890625 63.285156 8.929688 63.828125 8.964844 C 64.109375 8.984375 64.386719 9.003906 64.675781 9.023438 C 64.996094 9.046875 64.996094 9.046875 65.320312 9.066406 C 65.320312 9.101562 65.320312 9.136719 65.320312 9.171875 C 64.722656 9.183594 64.125 9.1875 63.527344 9.191406 C 63.195312 9.195312 62.863281 9.199219 62.519531 9.203125 C 61.628906 9.171875 61.628906 9.171875 61.082031 9.011719 C 60.980469 8.960938 60.878906 8.90625 60.777344 8.851562 C 60.871094 8.816406 60.964844 8.78125 61.058594 8.746094 Z M 61.058594 8.746094 "/>
<path style=" stroke:none;fill-rule:nonzero;fill:rgb(54.509807%,65.098041%,72.549021%);fill-opacity:1;" d="M 44.871094 8.214844 C 45.722656 8.214844 45.722656 8.214844 46.167969 8.347656 C 46.59375 8.539062 46.847656 8.734375 47.144531 8.960938 C 47.332031 8.996094 47.519531 9.03125 47.710938 9.066406 C 47.617188 9.171875 47.523438 9.277344 47.429688 9.386719 C 47.140625 9.285156 46.859375 9.183594 46.574219 9.078125 C 46.417969 9.023438 46.257812 8.964844 46.097656 8.90625 C 45.722656 8.746094 45.722656 8.746094 45.722656 8.535156 C 45.441406 8.5 45.160156 8.464844 44.871094 8.425781 C 44.871094 8.355469 44.871094 8.285156 44.871094 8.214844 Z M 44.871094 8.214844 "/>
<path style=" stroke:none;fill-rule:nonzero;fill:rgb(40.784314%,55.686277%,64.313728%);fill-opacity:1;" d="M 4.542969 7.359375 C 4.824219 7.394531 5.105469 7.429688 5.394531 7.464844 C 5.675781 7.429688 5.957031 7.394531 6.246094 7.359375 C 6.246094 7.429688 6.246094 7.5 6.246094 7.574219 C 6.527344 7.539062 6.808594 7.503906 7.101562 7.464844 C 6.871094 7.671875 6.871094 7.671875 6.53125 7.894531 C 6.25 7.929688 5.96875 7.964844 5.679688 8 C 5.679688 7.929688 5.679688 7.859375 5.679688 7.785156 C 5.398438 7.785156 5.117188 7.785156 4.828125 7.785156 C 4.734375 7.644531 4.640625 7.503906 4.542969 7.359375 Z M 4.542969 7.359375 "/>
<path style=" stroke:none;fill-rule:nonzero;fill:rgb(81.568629%,54.901963%,44.705883%);fill-opacity:1;" d="M 26.410156 7.679688 C 26.503906 7.679688 26.597656 7.679688 26.695312 7.679688 C 26.78125 8.214844 26.691406 8.523438 25.84375 8.960938 C 25.523438 8.609375 25.589844 8.421875 25.96875 8.078125 C 26.050781 8.003906 26.132812 7.929688 26.214844 7.851562 C 26.28125 7.796875 26.34375 7.738281 26.410156 7.679688 Z M 26.410156 7.679688 "/>
<path style=" stroke:none;fill-rule:nonzero;fill:rgb(58.039218%,65.490198%,71.764708%);fill-opacity:1;" d="M 59.355469 5.332031 C 59.355469 5.761719 58.847656 5.941406 58.21875 6.292969 C 57.867188 6.636719 57.867188 6.636719 57.652344 6.933594 C 57.359375 6.648438 57.347656 6.527344 57.632812 6.234375 C 57.761719 6.140625 57.890625 6.050781 58.023438 5.953125 C 58.152344 5.859375 58.28125 5.765625 58.410156 5.667969 C 58.789062 5.441406 58.789062 5.441406 59.355469 5.332031 Z M 59.355469 5.332031 "/>
<path style=" stroke:none;fill-rule:nonzero;fill:rgb(56.862748%,65.490198%,70.980394%);fill-opacity:1;" d="M 67.59375 9.492188 C 67.59375 9.5625 67.59375 9.632812 67.59375 9.707031 C 66.082031 9.929688 64.953125 10.09375 63.332031 9.921875 C 63.332031 9.886719 63.332031 9.847656 63.332031 9.8125 C 63.933594 9.757812 64.539062 9.707031 65.140625 9.652344 C 65.480469 9.625 65.816406 9.59375 66.160156 9.5625 C 67.023438 9.492188 67.023438 9.492188 67.59375 9.492188 Z M 67.59375 9.492188 "/>
<path style=" stroke:none;fill-rule:nonzero;fill:rgb(40.392157%,52.156866%,57.254905%);fill-opacity:1;" d="M 48.5625 4.585938 C 49.3125 4.585938 50.0625 4.585938 50.835938 4.585938 C 50.835938 4.65625 50.835938 4.726562 50.835938 4.800781 C 50.460938 4.800781 50.085938 4.800781 49.699219 4.800781 C 49.699219 4.871094 49.699219 4.941406 49.699219 5.011719 C 49.230469 5.011719 48.761719 5.011719 48.28125 5.011719 C 48.375 4.871094 48.46875 4.730469 48.5625 4.585938 Z M 48.5625 4.585938 "/>
<path style=" stroke:none;fill-rule:nonzero;fill:rgb(37.254903%,45.490196%,50.588238%);fill-opacity:1;" d="M 27.832031 9.28125 C 28.300781 9.28125 28.769531 9.28125 29.253906 9.28125 C 29.347656 9.421875 29.4375 9.5625 29.535156 9.707031 C 30.003906 9.742188 30.472656 9.777344 30.957031 9.8125 C 30.496094 9.894531 30.496094 9.894531 29.820312 9.921875 C 28.234375 9.582031 28.234375 9.582031 27.832031 9.28125 Z M 27.832031 9.28125 "/>
<path style=" stroke:none;fill-rule:nonzero;fill:rgb(54.901963%,63.921571%,69.01961%);fill-opacity:1;" d="M 67.875 8.320312 C 68.15625 8.390625 68.4375 8.460938 68.726562 8.535156 C 68.160156 8.851562 68.160156 8.851562 67.546875 8.929688 C 67.199219 8.957031 67.199219 8.957031 66.847656 8.980469 C 66.5 9.003906 66.5 9.003906 66.144531 9.03125 C 65.875 9.046875 65.875 9.046875 65.605469 9.066406 C 65.820312 9.003906 66.039062 8.9375 66.261719 8.875 C 66.839844 8.695312 67.363281 8.523438 67.875 8.320312 Z M 67.875 8.320312 "/>
<path style=" stroke:none;fill-rule:nonzero;fill:rgb(42.352942%,56.862748%,62.7451%);fill-opacity:1;" d="M 67.023438 4.90625 C 66.527344 5.125 66.527344 5.125 65.886719 5.332031 C 65.25 5.308594 65.25 5.308594 64.753906 5.226562 C 64.847656 5.121094 64.9375 5.015625 65.035156 4.90625 C 65.925781 4.796875 66.167969 4.808594 67.023438 4.90625 Z M 67.023438 4.90625 "/>
<path style=" stroke:none;fill-rule:nonzero;fill:rgb(22.745098%,28.235295%,32.549021%);fill-opacity:1;" d="M 13.914062 4.585938 C 13.824219 4.726562 13.730469 4.867188 13.632812 5.011719 C 13.632812 4.941406 13.632812 4.871094 13.632812 4.800781 C 12.882812 4.800781 12.132812 4.800781 11.359375 4.800781 C 11.933594 4.371094 12.859375 4.488281 13.914062 4.585938 Z M 13.914062 4.585938 "/>
<path style=" stroke:none;fill-rule:nonzero;fill:rgb(57.647061%,65.490198%,72.549021%);fill-opacity:1;" d="M 49.699219 8.960938 C 50.777344 9.117188 51.339844 9.347656 51.972656 9.707031 C 51.878906 9.8125 51.785156 9.917969 51.6875 10.027344 C 51.261719 9.878906 51.261719 9.878906 50.835938 9.707031 C 50.835938 9.636719 50.835938 9.566406 50.835938 9.492188 C 50.648438 9.492188 50.460938 9.492188 50.269531 9.492188 C 50.082031 9.316406 49.894531 9.140625 49.699219 8.960938 Z M 49.699219 8.960938 "/>
<path style=" stroke:none;fill-rule:nonzero;fill:rgb(48.235294%,60.000002%,66.666669%);fill-opacity:1;" d="M 46.292969 6.1875 C 46.574219 6.1875 46.855469 6.1875 47.144531 6.1875 C 47.144531 6.363281 47.144531 6.539062 47.144531 6.71875 C 46.582031 6.824219 46.582031 6.824219 46.007812 6.933594 C 45.832031 6.738281 45.832031 6.738281 45.722656 6.507812 C 45.910156 6.402344 46.097656 6.296875 46.292969 6.1875 Z M 46.292969 6.1875 "/>
<path style=" stroke:none;fill-rule:nonzero;fill:rgb(45.490196%,56.078434%,64.705884%);fill-opacity:1;" d="M 54.828125 4.792969 C 55.242188 4.796875 55.242188 4.796875 55.664062 4.800781 C 55.570312 4.941406 55.476562 5.082031 55.378906 5.226562 C 55.097656 5.191406 54.816406 5.15625 54.527344 5.121094 C 54.433594 5.191406 54.339844 5.261719 54.242188 5.332031 C 54.054688 5.191406 53.867188 5.050781 53.675781 4.90625 C 53.960938 4.800781 53.960938 4.800781 54.828125 4.792969 Z M 54.828125 4.792969 "/>
<path style=" stroke:none;fill-rule:nonzero;fill:rgb(38.82353%,43.529412%,48.627451%);fill-opacity:1;" d="M 54.988281 4.464844 C 55.464844 4.472656 55.464844 4.472656 55.949219 4.480469 C 55.949219 4.585938 55.949219 4.691406 55.949219 4.800781 C 55.105469 4.765625 54.261719 4.730469 53.390625 4.691406 C 53.960938 4.480469 53.960938 4.480469 54.988281 4.464844 Z M 54.988281 4.464844 "/>
<path style=" stroke:none;fill-rule:nonzero;fill:rgb(50.980395%,62.352943%,72.549021%);fill-opacity:1;" d="M 2.273438 4.800781 C 2.460938 4.800781 2.648438 4.800781 2.839844 4.800781 C 2.746094 5.082031 2.652344 5.363281 2.554688 5.652344 C 2.273438 5.617188 1.992188 5.582031 1.703125 5.546875 C 1.667969 5.292969 1.667969 5.292969 1.703125 5.011719 C 1.890625 4.941406 2.078125 4.871094 2.273438 4.800781 Z M 2.273438 4.800781 "/>
<path style=" stroke:none;fill-rule:nonzero;fill:rgb(46.666667%,54.901963%,61.176473%);fill-opacity:1;" d="M 30.671875 4.90625 C 30.671875 4.976562 30.671875 5.046875 30.671875 5.121094 C 29.847656 5.253906 29.308594 5.332031 28.398438 5.332031 C 28.398438 5.226562 28.398438 5.121094 28.398438 5.011719 C 29.167969 4.867188 29.824219 4.898438 30.671875 4.90625 Z M 30.671875 4.90625 "/>
<path style=" stroke:none;fill-rule:nonzero;fill:rgb(56.862748%,65.098041%,68.235296%);fill-opacity:1;" d="M 7.953125 9.171875 C 8.234375 9.492188 8.234375 9.492188 7.96875 9.726562 C 7.820312 9.824219 7.820312 9.824219 7.667969 9.921875 C 7.480469 9.921875 7.292969 9.921875 7.101562 9.921875 C 7.007812 9.742188 6.914062 9.566406 6.816406 9.386719 C 7.003906 9.351562 7.191406 9.316406 7.382812 9.28125 C 7.570312 9.316406 7.757812 9.351562 7.953125 9.386719 C 7.953125 9.316406 7.953125 9.246094 7.953125 9.171875 Z M 7.953125 9.171875 "/>
<path style=" stroke:none;fill-rule:nonzero;fill:rgb(45.09804%,56.862748%,64.705884%);fill-opacity:1;" d="M 65.035156 8.960938 C 65.316406 8.996094 65.597656 9.03125 65.886719 9.066406 C 65.886719 9.136719 65.886719 9.207031 65.886719 9.28125 C 65.324219 9.28125 64.761719 9.28125 64.183594 9.28125 C 64.183594 9.351562 64.183594 9.421875 64.183594 9.492188 C 63.902344 9.492188 63.621094 9.492188 63.332031 9.492188 C 63.238281 9.386719 63.144531 9.28125 63.046875 9.171875 C 64.03125 9.121094 64.03125 9.121094 65.035156 9.066406 C 65.035156 9.03125 65.035156 8.996094 65.035156 8.960938 Z M 65.035156 8.960938 "/>
<path style=" stroke:none;fill-rule:nonzero;fill:rgb(40.392157%,56.862748%,64.705884%);fill-opacity:1;" d="M 58.789062 8.640625 C 60.136719 8.71875 60.136719 8.71875 60.777344 8.960938 C 60.308594 9.03125 59.839844 9.101562 59.355469 9.171875 C 59.167969 8.996094 58.980469 8.820312 58.789062 8.640625 Z M 58.789062 8.640625 "/>
<path style=" stroke:none;fill-rule:nonzero;fill:rgb(33.725491%,38.039216%,51.372552%);fill-opacity:1;" d="M 42.882812 4.585938 C 42.976562 4.65625 43.070312 4.726562 43.167969 4.800781 C 41.449219 4.820312 41.449219 4.820312 40.894531 4.800781 C 40.707031 4.730469 40.519531 4.660156 40.328125 4.585938 C 41.324219 4.460938 41.875 4.496094 42.882812 4.585938 Z M 42.882812 4.585938 "/>
<path style=" stroke:none;fill-rule:nonzero;fill:rgb(48.627451%,59.215689%,64.705884%);fill-opacity:1;" d="M 9.089844 8.214844 C 9.277344 8.214844 9.460938 8.214844 9.65625 8.214844 C 9.125 8.828125 9.125 8.828125 8.804688 9.066406 C 8.617188 9.066406 8.429688 9.066406 8.234375 9.066406 C 8.449219 8.453125 8.449219 8.453125 9.089844 8.214844 Z M 9.089844 8.214844 "/>
<path style=" stroke:none;fill-rule:nonzero;fill:rgb(56.862748%,65.098041%,71.372551%);fill-opacity:1;" d="M 53.390625 6.933594 C 54 7.300781 53.988281 7.550781 53.851562 7.972656 C 53.820312 8.078125 53.789062 8.183594 53.757812 8.292969 C 53.730469 8.371094 53.703125 8.449219 53.675781 8.535156 C 53.582031 8.535156 53.488281 8.535156 53.390625 8.535156 C 53.335938 8.285156 53.285156 8.039062 53.230469 7.792969 C 53.1875 7.585938 53.1875 7.585938 53.140625 7.378906 C 53.132812 7.265625 53.121094 7.15625 53.109375 7.039062 C 53.203125 7.003906 53.296875 6.96875 53.390625 6.933594 Z M 53.390625 6.933594 "/>
<path style=" stroke:none;fill-rule:nonzero;fill:rgb(91.764706%,49.411765%,41.568628%);fill-opacity:1;" d="M 19.597656 8.746094 C 20.347656 8.746094 21.09375 8.746094 21.867188 8.746094 C 21.867188 8.816406 21.867188 8.886719 21.867188 8.960938 C 20.878906 9.082031 20.316406 9.035156 19.3125 8.960938 C 19.40625 8.890625 19.5 8.820312 19.597656 8.746094 Z M 19.597656 8.746094 "/>
<path style=" stroke:none;fill-rule:nonzero;fill:rgb(42.745098%,55.686277%,63.529414%);fill-opacity:1;" d="M 59.640625 7.679688 C 59.828125 7.714844 60.015625 7.75 60.207031 7.785156 C 60.113281 8.03125 60.019531 8.28125 59.925781 8.535156 C 59.644531 8.5 59.363281 8.464844 59.070312 8.425781 C 58.976562 8.25 58.882812 8.074219 58.789062 7.894531 C 58.976562 7.894531 59.164062 7.894531 59.355469 7.894531 C 59.449219 7.824219 59.542969 7.753906 59.640625 7.679688 Z M 59.640625 7.679688 "/>
<path style=" stroke:none;fill-rule:nonzero;fill:rgb(54.509807%,63.921571%,70.19608%);fill-opacity:1;" d="M 45.441406 7.253906 C 46.292969 7.359375 46.292969 7.359375 46.628906 7.578125 C 46.707031 7.648438 46.78125 7.714844 46.859375 7.785156 C 46.671875 7.855469 46.484375 7.925781 46.292969 8 C 46.292969 7.929688 46.292969 7.859375 46.292969 7.785156 C 46.105469 7.785156 45.917969 7.785156 45.722656 7.785156 C 45.628906 7.609375 45.535156 7.433594 45.441406 7.253906 Z M 45.441406 7.253906 "/>
<path style=" stroke:none;fill-rule:nonzero;fill:rgb(45.882353%,56.470591%,62.7451%);fill-opacity:1;" d="M 13.0625 5.546875 C 12.566406 6.160156 12.566406 6.160156 11.929688 6.398438 C 11.835938 6.1875 11.742188 5.976562 11.644531 5.761719 C 12.496094 5.546875 12.496094 5.546875 13.0625 5.546875 Z M 13.0625 5.546875 "/>
<path style=" stroke:none;fill-rule:nonzero;fill:rgb(44.313726%,54.901963%,58.823532%);fill-opacity:1;" d="M 41.746094 9.492188 C 41.839844 9.5625 41.933594 9.632812 42.03125 9.707031 C 42.21875 9.742188 42.40625 9.777344 42.601562 9.8125 C 42.507812 9.882812 42.414062 9.953125 42.316406 10.027344 C 41.753906 10.027344 41.191406 10.027344 40.613281 10.027344 C 40.707031 9.921875 40.800781 9.816406 40.894531 9.707031 C 41.175781 9.707031 41.457031 9.707031 41.746094 9.707031 C 41.746094 9.636719 41.746094 9.566406 41.746094 9.492188 Z M 41.746094 9.492188 "/>
<path style=" stroke:none;fill-rule:nonzero;fill:rgb(57.254905%,65.098041%,70.588237%);fill-opacity:1;" d="M 47.710938 9.386719 C 48.273438 9.492188 48.273438 9.492188 48.847656 9.601562 C 48.847656 9.671875 48.847656 9.742188 48.847656 9.8125 C 49.410156 9.8125 49.972656 9.8125 50.550781 9.8125 C 50.550781 9.847656 50.550781 9.882812 50.550781 9.921875 C 49.800781 9.921875 49.050781 9.921875 48.28125 9.921875 C 48.09375 9.742188 47.90625 9.566406 47.710938 9.386719 Z M 47.710938 9.386719 "/>
</g>
</svg>
